<?xml version="1.0" encoding="utf-8"?>
<svg version="1.1" xmlns:xlink="http://www.w3.org/1999/xlink" width="15px" height="9px" xmlns="http://www.w3.org/2000/svg">
  <defs>
    <pattern id="BGPattern" patternUnits="userSpaceOnUse" alignment="0 0" imageRepeat="None" />
    <mask fill="white" id="Clip31">
      <path d="M 6.675 8.712  C 4.545 6.39  2.4 4.077  0.26999999999999996 1.7550000000000001  C -0.6 0.8009999999999999  0.825 -0.6120000000000001  1.71 0.34199999999999997  C 3.5999999999999996 2.403  5.505 4.464  7.395 6.5249999999999995  C 9.36 4.455  11.325 2.3850000000000002  13.290000000000001 0.30600000000000005  C 14.19 -0.6300000000000001  15.614999999999998 0.7919999999999999  14.715 1.728  C 12.51 4.059  10.305000000000001 6.380999999999999  8.100000000000001 8.712  C 7.74 9.09  7.034999999999999 9.098999999999998  6.675 8.712  Z " fill-rule="evenodd" />
    </mask>
  </defs>
  <g transform="matrix(1 0 0 1 0 -1 )">
    <path d="M 6.675 8.712  C 4.545 6.39  2.4 4.077  0.26999999999999996 1.7550000000000001  C -0.6 0.8009999999999999  0.825 -0.6120000000000001  1.71 0.34199999999999997  C 3.5999999999999996 2.403  5.505 4.464  7.395 6.5249999999999995  C 9.36 4.455  11.325 2.3850000000000002  13.290000000000001 0.30600000000000005  C 14.19 -0.6300000000000001  15.614999999999998 0.7919999999999999  14.715 1.728  C 12.51 4.059  10.305000000000001 6.380999999999999  8.100000000000001 8.712  C 7.74 9.09  7.034999999999999 9.098999999999998  6.675 8.712  Z " fill-rule="nonzero" fill="rgba(255, 255, 255, 0)" stroke="none" transform="matrix(1 0 0 1 0 1 )" class="fill" />
    <path d="M 6.675 8.712  C 4.545 6.39  2.4 4.077  0.26999999999999996 1.7550000000000001  C -0.6 0.8009999999999999  0.825 -0.6120000000000001  1.71 0.34199999999999997  C 3.5999999999999996 2.403  5.505 4.464  7.395 6.5249999999999995  C 9.36 4.455  11.325 2.3850000000000002  13.290000000000001 0.30600000000000005  C 14.19 -0.6300000000000001  15.614999999999998 0.7919999999999999  14.715 1.728  C 12.51 4.059  10.305000000000001 6.380999999999999  8.100000000000001 8.712  C 7.74 9.09  7.034999999999999 9.098999999999998  6.675 8.712  Z " stroke-width="0" stroke-dasharray="0" stroke="rgba(121, 121, 121, 1)" fill="none" transform="matrix(1 0 0 1 0 1 )" class="stroke" mask="url(#Clip31)" />
  </g>
</svg>